<?xml version="1.0" standalone="no"?>
<!DOCTYPE svg PUBLIC "-//W3C//DTD SVG 20010904//EN"
 "http://www.w3.org/TR/2001/REC-SVG-20010904/DTD/svg10.dtd">
<svg version="1.0" xmlns="http://www.w3.org/2000/svg"
 width="498.000000pt" height="330.000000pt" viewBox="0 0 498.000000 330.000000"
 preserveAspectRatio="xMidYMid meet">

<g transform="translate(0.000000,330.000000) scale(0.100000,-0.100000)"
fill="#18ffff" stroke="none">
<path  d="M7 3293 c-13 -12 -8 -93 6 -93 72 -1 209 -24 244 -41 65 -31 134
-115 192 -231 58 -116 93 -210 676 -1791 l420 -1137 49 2 50 3 89 248 89 249
-46 121 c-61 159 -319 852 -608 1637 -217 587 -231 630 -235 705 -4 68 -1 85
16 112 29 46 85 80 166 99 39 9 76 18 82 20 8 2 13 22 13 54 l0 50 -598 0
c-329 0 -602 -3 -605 -7z"/>
<path d="M1890 3251 l0 -50 48 -6 c156 -19 230 -55 295 -143 56 -77 82 -136
177 -402 44 -124 281 -771 527 -1437 l448 -1213 52 0 c29 0 53 1 53 3 0 2 38
109 85 238 47 128 85 241 85 249 0 8 -21 69 -46 135 -126 330 -822 2226 -832
2267 -19 77 -15 165 9 205 30 48 103 82 202 93 45 6 83 10 85 10 1 0 2 23 2
50 l0 50 -595 0 -595 0 0 -49z"/>
<path d="M3990 3252 l0 -49 67 -6 c120 -12 205 -70 239 -164 7 -21 13 -74 14
-118 l0 -80 66 -85 c36 -47 68 -85 70 -85 2 0 24 44 48 98 88 195 179 314 286
375 47 27 79 38 178 58 21 4 23 9 20 52 l-3 47 -492 3 -493 2 0 -48z"/>
</g>
</svg>
